# xmcd
#
# Track frame offsets: 
#        182
#        18422
#        36082
#        48687
#        64805
#        81937
#        95255
#        110545
#        128150
#        146572
#        166127
#        178767
#
# Disc length: 2603 seconds
#
# Revision: 9
# Processed by: cddbd v1.5.1PL0 Copyright (c) Steve Scherf et al.
# Submitted via: ExactAudioCopy v0.95a5
#
DISCID=a10a290c
DTITLE=Trisha Yearwood - (Songbook) A collection of hits
DYEAR=1997
DGENRE=Country
TTITLE0=How Do I Live
TTITLE1=The Song Remembers When
TTITLE2=The Wrong Side Of Memphis
TTITLE3=In Another's Eyes [Duet with Garth Brooks]
TTITLE4=The Woman Before Me
TTITLE5=Perfect Love
TTITLE6=Thinkin' About You
TTITLE7=Down On My Knees
TTITLE8=She's In Love With The Boy
TTITLE9=Walkaway Joe
TTITLE10=XXX's and OOO's (An American Girl)
TTITLE11=Like We Never Had A Broken Heart
EXTD=YEAR: 1997 ID3G: 2
EXTT0=
EXTT1=
EXTT2=
EXTT3=
EXTT4=
EXTT5=
EXTT6=
EXTT7=
EXTT8=
EXTT9=
EXTT10=
EXTT11=
PLAYORDER=
